<svg xmlns="http://www.w3.org/2000/svg" width="1600" height="1200" viewBox="0 0 1600 1200">
  <rect width="1600" height="1200" fill="#eef3f8"/>
  <rect x="80" y="80" width="1440" height="1040" fill="none" stroke="#1f5f99" stroke-width="6"/>
  <text x="800" y="150" text-anchor="middle" font-family="sans-serif" font-size="44" fill="#234361">Admin Upload UAT Fixture</text>
  <text x="800" y="205" text-anchor="middle" font-family="sans-serif" font-size="22" fill="#486581">Cooling loop schematic test drawing for upload and mapping flows</text>

  <line x1="240" y1="340" x2="1360" y2="340" stroke="#7b8794" stroke-width="18" stroke-linecap="round"/>
  <line x1="240" y1="600" x2="1360" y2="600" stroke="#7b8794" stroke-width="18" stroke-linecap="round"/>
  <line x1="240" y1="860" x2="1360" y2="860" stroke="#7b8794" stroke-width="18" stroke-linecap="round"/>
  <line x1="350" y1="220" x2="350" y2="980" stroke="#9fb3c8" stroke-width="14" stroke-linecap="round"/>
  <line x1="800" y1="220" x2="800" y2="980" stroke="#9fb3c8" stroke-width="14" stroke-linecap="round"/>
  <line x1="1250" y1="220" x2="1250" y2="980" stroke="#9fb3c8" stroke-width="14" stroke-linecap="round"/>

  <rect x="240" y="290" width="140" height="100" rx="16" fill="#d9e2ec" stroke="#486581" stroke-width="4"/>
  <rect x="730" y="290" width="140" height="100" rx="16" fill="#d9e2ec" stroke="#486581" stroke-width="4"/>
  <rect x="1180" y="290" width="140" height="100" rx="16" fill="#d9e2ec" stroke="#486581" stroke-width="4"/>

  <circle cx="350" cy="600" r="62" fill="#d9e2ec" stroke="#486581" stroke-width="4"/>
  <circle cx="800" cy="600" r="62" fill="#d9e2ec" stroke="#486581" stroke-width="4"/>
  <circle cx="1250" cy="600" r="62" fill="#d9e2ec" stroke="#486581" stroke-width="4"/>

  <path d="M260 860 h180 l30 50 h140" fill="none" stroke="#486581" stroke-width="10" stroke-linejoin="round" stroke-linecap="round"/>
  <path d="M710 860 h180 l30 50 h140" fill="none" stroke="#486581" stroke-width="10" stroke-linejoin="round" stroke-linecap="round"/>
  <path d="M1160 860 h180" fill="none" stroke="#486581" stroke-width="10" stroke-linecap="round"/>

  <text x="310" y="455" font-family="sans-serif" font-size="24" fill="#334e68">Pump A</text>
  <text x="760" y="455" font-family="sans-serif" font-size="24" fill="#334e68">Valve Bank</text>
  <text x="1190" y="455" font-family="sans-serif" font-size="24" fill="#334e68">Pump B</text>

  <text x="270" y="705" font-family="sans-serif" font-size="24" fill="#334e68">Heat Exchanger</text>
  <text x="760" y="705" font-family="sans-serif" font-size="24" fill="#334e68">Filter Vessel</text>
  <text x="1200" y="705" font-family="sans-serif" font-size="24" fill="#334e68">Accumulator</text>

  <text x="230" y="1040" font-family="monospace" font-size="24" fill="#52606d">Suggested mapping labels: FP-UAT-001 .. FP-UAT-008</text>
</svg>